# OBJ written by Mesh::writeToOBJ()

v 0 0 0
v 0 0 1
v 0 1 0
v 0 1 1
v 1 0 0
v 1 0 1
v 1 1 0
v 1 1 1

vt 0.25 0.75
vt 0.5 0.75
vt 0 0.5
vt 0.25 0.5
vt 0.5 0.5
vt 0.75 0.5
vt 1 0.5
vt 0 0.25
vt 0.25 0.25
vt 0.5 0.25
vt 0.75 0.25
vt 1 0.25
vt 0.25 0
vt 0.5 0

vn -0.57735025882720947265625 -0.57735025882720947265625 -0.57735025882720947265625
vn -0.4082482755184173583984375 -0.4082482755184173583984375 0.816496551036834716796875
vn -0.4082482755184173583984375 0.816496551036834716796875 -0.4082482755184173583984375
vn -0.816496551036834716796875 0.4082482755184173583984375 0.4082482755184173583984375
vn 0.816496551036834716796875 -0.4082482755184173583984375 -0.4082482755184173583984375
vn 0.4082482755184173583984375 -0.816496551036834716796875 0.4082482755184173583984375
vn 0.4082482755184173583984375 0.4082482755184173583984375 -0.816496551036834716796875
vn 0.57735025882720947265625 0.57735025882720947265625 0.57735025882720947265625

f 1/10/1 7/13/7 5/14/5
f 1/10/1 3/9/3 7/13/7
f 1/10/1 4/4/4 3/9/3
f 1/10/1 2/5/2 4/4/4
f 3/9/3 8/3/8 7/8/7
f 3/9/3 4/4/4 8/3/8
f 5/11/5 7/12/7 8/7/8
f 5/11/5 8/7/8 6/6/6
f 1/10/1 5/11/5 6/6/6
f 1/10/1 6/6/6 2/5/2
f 2/5/2 6/2/6 8/1/8
f 2/5/2 8/1/8 4/4/4
